ffmpeg started on 2016-12-05 at 03:53:43
Report written to "Output/x264/results/ffmpeg/crowd_run_2160p50veryfast7000k.log"
Command line:
Tools/ffmpeg/ffmpeg -benchmark -y -i Input/y4m/crowd_run_2160p50.y4m -c:v libx264 -preset veryfast -b:v 7000k -an Output/x264/encoded/crowd_run_2160p50veryfast7000k.mkv
ffmpeg version N-82227-gdb23fde Copyright (c) 2000-2016 the FFmpeg developers
  built with gcc 5.4.0 (Ubuntu 5.4.0-6ubuntu1~16.04.2) 20160609
  configuration: --prefix=/home/jaroslav/ffmpeg_build --pkg-config-flags=--static --extra-cflags=-I/home/jaroslav/ffmpeg_build/include --extra-ldflags=-L/home/jaroslav/ffmpeg_build/lib --bindir=/home/jaroslav/bin --enable-gpl --enable-libass --enable-libfdk-aac --enable-libfreetype --enable-libmp3lame --enable-libopus --enable-libtheora --enable-libvorbis --enable-libvpx --enable-libx264 --enable-libx265 --enable-nvenc --enable-libmfx --enable-libxvid --enable-libgsm --enable-libopencore-amrnb --enable-version3 --enable-nonfree
  libavutil      55. 35.100 / 55. 35.100
  libavcodec     57. 66.101 / 57. 66.101
  libavformat    57. 57.100 / 57. 57.100
  libavdevice    57.  2.100 / 57.  2.100
  libavfilter     6. 66.100 /  6. 66.100
  libswscale      4.  3.100 /  4.  3.100
  libswresample   2.  4.100 /  2.  4.100
  libpostproc    54.  2.100 / 54.  2.100
Input #0, yuv4mpegpipe, from 'Input/y4m/crowd_run_2160p50.y4m':
  Duration: 00:00:10.00, start: 0.000000, bitrate: 4976642 kb/s
    Stream #0:0: Video: rawvideo (I420 / 0x30323449), yuv420p(progressive), 3840x2160, SAR 1:1 DAR 16:9, 50 fps, 50 tbr, 50 tbn, 50 tbc
[libx264 @ 0x31031c0] using SAR=1/1
[libx264 @ 0x31031c0] using cpu capabilities: MMX2 SSE2Fast SSSE3 SSE4.2 AVX FMA3 AVX2 LZCNT BMI2
[libx264 @ 0x31031c0] profile High, level 5.2
[libx264 @ 0x31031c0] 264 - core 148 - H.264/MPEG-4 AVC codec - Copyleft 2003-2016 - http://www.videolan.org/x264.html - options: cabac=1 ref=1 deblock=1:0:0 analyse=0x3:0x113 me=hex subme=2 psy=1 psy_rd=1.00:0.00 mixed_ref=0 me_range=16 chroma_me=1 trellis=0 8x8dct=1 cqm=0 deadzone=21,11 fast_pskip=1 chroma_qp_offset=0 threads=6 lookahead_threads=2 sliced_threads=0 nr=0 decimate=1 interlaced=0 bluray_compat=0 constrained_intra=0 bframes=3 b_pyramid=2 b_adapt=1 b_bias=0 direct=1 weightb=1 open_gop=0 weightp=1 keyint=250 keyint_min=25 scenecut=40 intra_refresh=0 rc_lookahead=10 rc=abr mbtree=1 bitrate=7000 ratetol=1.0 qcomp=0.60 qpmin=0 qpmax=69 qpstep=4 ip_ratio=1.40 aq=1:1.00
Output #0, matroska, to 'Output/x264/encoded/crowd_run_2160p50veryfast7000k.mkv':
  Metadata:
    encoder         : Lavf57.57.100
    Stream #0:0: Video: h264 (libx264) (H264 / 0x34363248), yuv420p, 3840x2160 [SAR 1:1 DAR 16:9], q=-1--1, 7000 kb/s, 50 fps, 1k tbn, 50 tbc
    Metadata:
      encoder         : Lavc57.66.101 libx264
    Side data:
      cpb: bitrate max/min/avg: 0/0/7000000 buffer size: 0 vbv_delay: -1
Stream mapping:
  Stream #0:0 -> #0:0 (rawvideo (native) -> h264 (libx264))
Press [q] to stop, [?] for help
frame=   17 fps=0.0 q=0.0 size=       0kB time=00:00:00.00 bitrate=N/A speed=   0x    frame=   29 fps= 25 q=52.0 size=       1kB time=00:00:00.12 bitrate=  48.5kbits/s speed=0.105x    frame=   33 fps= 20 q=50.0 size=       1kB time=00:00:00.20 bitrate=  29.2kbits/s speed=0.121x    frame=   38 fps= 17 q=50.0 size=       1kB time=00:00:00.30 bitrate=  19.5kbits/s speed=0.136x    frame=   51 fps= 17 q=49.0 size=       1kB time=00:00:00.56 bitrate=  10.5kbits/s speed=0.184x    frame=   66 fps= 18 q=49.0 size=       1kB time=00:00:00.86 bitrate=   6.8kbits/s speed=0.241x    frame=   81 fps= 20 q=48.0 size=       1kB time=00:00:01.16 bitrate=   5.1kbits/s speed=0.283x    frame=   95 fps= 21 q=48.0 size=       1kB time=00:00:01.44 bitrate=   4.1kbits/s speed=0.312x    frame=  110 fps= 21 q=47.0 size=       1kB time=00:00:01.74 bitrate=   3.4kbits/s speed=0.337x    frame=  124 fps= 22 q=47.0 size=       1kB time=00:00:02.02 bitrate=   2.9kbits/s speed=0.356x    frame=  138 fps= 22 q=47.0 size=       1kB time=00:00:02.30 bitrate=   2.5kbits/s speed=0.372x    frame=  152 fps= 22 q=47.0 size=       1kB time=00:00:02.58 bitrate=   2.3kbits/s speed=0.377x    frame=  162 fps= 22 q=46.0 size=       1kB time=00:00:02.78 bitrate=   2.1kbits/s speed=0.377x    frame=  170 fps= 21 q=46.0 size=       1kB time=00:00:02.94 bitrate=   2.0kbits/s speed=0.369x    frame=  184 fps= 22 q=46.0 size=       1kB time=00:00:03.22 bitrate=   1.8kbits/s speed=0.38x    frame=  198 fps= 22 q=46.0 size=       1kB time=00:00:03.50 bitrate=   1.7kbits/s speed=0.389x    frame=  209 fps= 22 q=46.0 size=       1kB time=00:00:03.72 bitrate=   1.6kbits/s speed=0.391x    frame=  223 fps= 22 q=46.0 size=       1kB time=00:00:04.00 bitrate=   1.5kbits/s speed=0.398x    frame=  237 fps= 22 q=46.0 size=       1kB time=00:00:04.28 bitrate=   1.4kbits/s speed=0.406x    frame=  250 fps= 23 q=46.0 size=       1kB time=00:00:04.54 bitrate=   1.3kbits/s speed=0.41x    frame=  264 fps= 23 q=46.0 size=       1kB time=00:00:04.82 bitrate=   1.2kbits/s speed=0.417x    frame=  273 fps= 23 q=46.0 size=    4306kB time=00:00:05.00 bitrate=7054.2kbits/s speed=0.414x    frame=  283 fps= 22 q=47.0 size=    4306kB time=00:00:05.20 bitrate=6783.0kbits/s speed=0.41x    frame=  291 fps= 22 q=46.0 size=    4306kB time=00:00:05.36 bitrate=6580.5kbits/s speed=0.403x    frame=  305 fps= 22 q=47.0 size=    4306kB time=00:00:05.64 bitrate=6253.9kbits/s speed=0.408x    frame=  310 fps= 22 q=46.0 size=    4306kB time=00:00:05.74 bitrate=6145.0kbits/s speed= 0.4x    frame=  324 fps= 21 q=46.0 size=    4306kB time=00:00:06.02 bitrate=5859.2kbits/s speed=0.388x    frame=  338 fps= 21 q=47.0 size=    4306kB time=00:00:06.30 bitrate=5598.8kbits/s speed=0.393x    frame=  352 fps= 21 q=47.0 size=    4306kB time=00:00:06.58 bitrate=5360.6kbits/s speed=0.397x    frame=  366 fps= 21 q=47.0 size=    4306kB time=00:00:06.86 bitrate=5141.9kbits/s speed=0.401x    frame=  380 fps= 22 q=47.0 size=    4306kB time=00:00:07.14 bitrate=4940.2kbits/s speed=0.405x    frame=  394 fps= 22 q=47.0 size=    4306kB time=00:00:07.42 bitrate=4753.8kbits/s speed=0.409x    frame=  399 fps= 21 q=47.0 size=    4306kB time=00:00:07.52 bitrate=4690.6kbits/s speed=0.403x    frame=  412 fps= 21 q=47.0 size=    4306kB time=00:00:07.78 bitrate=4533.9kbits/s speed=0.406x    frame=  422 fps= 21 q=47.0 size=    4306kB time=00:00:07.98 bitrate=4420.3kbits/s speed=0.402x    frame=  435 fps= 21 q=47.0 size=    4306kB time=00:00:08.24 bitrate=4280.8kbits/s speed=0.404x    frame=  449 fps= 21 q=47.0 size=    4306kB time=00:00:08.52 bitrate=4140.2kbits/s speed=0.408x    frame=  462 fps= 22 q=47.0 size=    4306kB time=00:00:08.78 bitrate=4017.6kbits/s speed=0.41x    frame=  475 fps= 22 q=47.0 size=    4306kB time=00:00:09.04 bitrate=3902.0kbits/s speed=0.412x    frame=  488 fps= 22 q=47.0 size=    4306kB time=00:00:09.30 bitrate=3793.0kbits/s speed=0.415x    frame=  494 fps= 22 q=47.0 size=    4306kB time=00:00:09.42 bitrate=3744.6kbits/s speed=0.41x    frame=  500 fps= 21 q=-1.0 Lsize=    8727kB time=00:00:09.94 bitrate=7191.5kbits/s speed=0.421x    
video:8722kB audio:0kB subtitle:0kB other streams:0kB global headers:0kB muxing overhead: 0.049990%
bench: utime=63.592s
bench: maxrss=1088124kB
[libx264 @ 0x31031c0] frame I:2     Avg QP:37.27  size:230409
[libx264 @ 0x31031c0] frame P:126   Avg QP:45.60  size: 37980
[libx264 @ 0x31031c0] frame B:372   Avg QP:48.08  size:  9905
[libx264 @ 0x31031c0] consecutive B-frames:  0.8%  0.0%  0.0% 99.2%
[libx264 @ 0x31031c0] mb I  I16..4: 26.4% 62.2% 11.4%
[libx264 @ 0x31031c0] mb P  I16..4:  8.4% 11.6%  0.0%  P16..4: 14.9%  3.7%  0.9%  0.0%  0.0%    skip:60.6%
[libx264 @ 0x31031c0] mb B  I16..4:  0.9%  0.5%  0.0%  B16..8:  9.3%  1.1%  0.0%  direct: 2.5%  skip:85.7%  L0:44.3% L1:54.6% BI: 1.1%
[libx264 @ 0x31031c0] final ratefactor: 38.65
[libx264 @ 0x31031c0] 8x8 transform intra:54.6% inter:52.5%
[libx264 @ 0x31031c0] coded y,uvDC,uvAC intra: 17.1% 44.6% 10.2% inter: 0.4% 4.5% 0.0%
[libx264 @ 0x31031c0] i16 v,h,dc,p: 48% 26% 17%  9%
[libx264 @ 0x31031c0] i8 v,h,dc,ddl,ddr,vr,hd,vl,hu: 16% 12% 47%  4%  3%  4%  4%  4%  4%
[libx264 @ 0x31031c0] i4 v,h,dc,ddl,ddr,vr,hd,vl,hu: 22% 17% 11%  9%  9%  9%  8%  8%  8%
[libx264 @ 0x31031c0] i8c dc,h,v,p: 80%  7% 12%  1%
[libx264 @ 0x31031c0] Weighted P-Frames: Y:1.6% UV:0.0%
[libx264 @ 0x31031c0] kb/s:7144.92
